# xmcd CD database file
#
# Track frame offsets:
#	150
#	25097
#	62932
#
# Disc length: 1170 seconds
#
# Revision: 0
# Processed by: cddbd v1.5PL3 Copyright (c) Steve Scherf et al.
# Submitted via: CDex 1.51
#
DISCID=20049003
DTITLE=Kiss Destination - DEDICATED TO YOU
DYEAR=1999
DGENRE=JPop
TTITLE0=DEDICATED TO YOU
TTITLE1=PRECIOUS MOMENTS -WHEN WILL I SEE YOU AGAIN- (HEX HECTOR MIX)
TTITLE2=DEDICATED TO YOU (TV MIX)
EXTD=YEAR: 1999
EXTT0=
EXTT1=
EXTT2=
PLAYORDER=
